<svg width="61.009113mm" height="82.597336mm" viewBox="0 0 61.009113 82.597336" xmlns="http://www.w3.org/2000/svg">
    <path d="m 9883.3459,5676.7225 c -25.494,-1.1549 -99.753,-25.6389 -99.24,-122.5742 0.513,-96.9352 51.673,-125.7309 101.721,-131.1975 50.048,-5.4665 93.68,37.188 99.583,109.3313 5.903,72.1432 -36.873,125.2689 -48.508,133.8922 -11.635,8.6234 -9.069,-7.5453 -8.042,-15.0907 1.027,-7.5454 0.684,-41.3457 0.684,-41.3457 l -52.101,4.8506 c 0,0 7.957,44.2714 10.01,51.5088 2.053,7.2375 -4.107,10.6252 -4.107,10.6252 z" fill="#fff" paint-order="fill markers stroke" transform="translate(-111.65417,-55.033327) matrix(0.26458333,0,0,0.26458333,-2474.8621,-1368.0137)"/>
    <path d="m 9879.6739,5616.3106 49.048,-4.6575 c 0,0 -2.565,49.0505 -4.243,60.0858 -1.679,11.0353 -25.084,11.0353 -29.839,2.7273 -4.756,-8.3079 -14.966,-58.1556 -14.966,-58.1556 z" fill="#ecbaba" paint-order="fill markers stroke" transform="translate(-111.65417,-55.033327) matrix(0.26458333,0,0,0.26458333,-2474.8621,-1368.0137)"/>
    <path d="m 9883.3396,5687.9188 c -33.5881,-5.1442 -55.6009,-15.0417 -74.5647,-33.5253 -25.1649,-24.5283 -30.5259,-70.0627 -29.9598,-107.6409 0.2664,-17.7327 -0.4114,-37.3903 -1.5092,-43.6838 -8.0967,-46.4518 18.5209,-76.4862 35.3551,-80.8248 10.1711,-2.6216 9.4419,-4.4561 14.6205,-11.9104 22.1426,-31.8797 76.535,-43.3681 75.7236,-18.1209 -0.077,2.3064 1.156,2.8679 4.5086,2.06 44.542,-10.728 48.1722,4.9158 40.7312,15.5141 l -3.6112,5.142 c 17.1187,-1.8291 50.7145,-3.2276 41.3585,23.1679 -3.3105,5.9302 -3.2904,6.5997 0.3847,12.1265 7.1031,10.6862 9.6499,34.3998 4.2403,39.4734 -2.4419,2.2891 -2.4036,4.8648 0.2482,16.9286 1.7191,7.8258 3.5072,23.1624 3.972,34.0813 0.7245,17.0238 1.3536,19.8687 4.4178,19.9672 9.2848,0.2983 9.6178,13.4757 0.3914,15.4787 -3.7963,0.824 -5.0269,2.4376 -5.1653,6.7767 -0.3618,11.2478 -7.3885,37.4675 -12.7561,47.6018 -8.6323,16.2953 -26.1929,36.1625 -38.3773,43.4164 -6.0779,3.6178 -11.6307,6.559 -12.3409,6.5362 -0.7111,-0.023 -4.2966,2.1007 -7.9689,4.7189 -9.1698,6.5397 -13.0168,6.8029 -39.6985,2.7164 z m 36.7116,-20.207 c 2.8351,-5.0835 4.1973,-26.1319 2.5143,-38.8422 -0.8973,-6.7675 -1.6895,-7.6793 -6.8205,-7.8441 l -5.8058,-0.1866 0.7227,18.6458 c 0.5078,13.0731 0.096,18.2221 -1.4148,17.2277 -1.1769,-0.7801 -2.5573,-5.0871 -3.0699,-9.5711 -3.0604,-26.7747 -2.1641,-24.4593 -9.5631,-24.697 -12.9585,-0.4163 -13.3336,0.2306 -9.4332,16.2958 6.9303,28.5382 16.4696,41.7779 26.0594,36.1722 2.2804,-1.3322 5.3446,-4.5726 6.8109,-7.2005 z m -38.0728,-0.7478 c 0.028,-0.9767 -1.0853,-5.3797 -2.481,-9.7843 -1.3965,-4.4046 -3.0184,-13.7219 -3.6026,-20.7051 l -1.0605,-12.6968 -7.6778,-0.2464 c -8.1665,-0.2624 -12.8974,-4 -10.2045,-8.0617 3.0547,-4.6033 81.0435,-14.4095 88.7613,-11.1605 1.872,0.7883 3.2295,3.6359 3.1349,6.5761 -0.1517,4.5256 -3.5893,7.3616 -11.7958,9.7115 2.0276,13.8325 1.2801,29.2392 -0.4706,41.1738 25.5868,-22.7926 34.5895,-44.0652 40.3829,-78.0157 1.1092,-6.8496 0.6596,-7.9509 -4.1554,-10.1851 -2.9687,-1.3777 -6.9254,-3.865 -8.7927,-5.527 -5.1643,-4.5941 -0.8324,-10.5612 7.4697,-10.2945 l 6.5485,0.2104 -0.7274,-20.8655 c -0.5986,-17.1753 -7.1881,-58.3793 -10.3812,-55.6095 -2.815,2.4418 -27.3814,4.1334 -27.7403,-16.4911 -0.058,-3.8163 -2.2299,-3.3188 -7.2444,1.3841 -10.0795,8.6147 -27.7345,7.1107 -39.2822,-2.6193 -7.0515,-5.9414 -8.0758,-4.4516 -8.2085,-0.3475 -0.2272,7.0714 -13.2487,20.8644 -36.9053,3.8161 -13.9876,-10.0797 -18.3329,-9.1135 -25.4407,5.6557 -6.8053,13.712 -15.9589,26.0294 -24.8088,38.4552 l -1.1427,30.03 c -0.4955,13.0074 -1.4835,79.8439 29.0949,103.8382 16.1154,12.6461 29.9875,18.4931 55.159,23.2487 0.8323,0.158 1.5407,-0.5126 1.5712,-1.4894 z m -12.0326,-132.8773 c -3.0346,-6.1358 -0.442,-14.1818 4.52,-14.0225 4.6927,0.1509 8.4576,6.82 7.3665,13.0503 -1.0806,6.1687 -8.9959,6.8162 -11.8865,0.9722 z m 38.7238,-2.8228 c -3.0337,-6.1357 -0.441,-14.1817 4.5209,-14.0223 4.6928,0.1509 8.4577,6.8197 7.3666,13.0502 -1.0825,6.1688 -8.996,6.8164 -11.8875,0.9721 z" transform="translate(-111.65417,-55.033327) matrix(0.26458333,0,0,0.26458333,-2474.8621,-1368.0137)"/>
</svg>
