<svg width="471.60849mm" height="316.49545mm" viewBox="0 0 471.60849 316.49545" xmlns="http://www.w3.org/2000/svg">
    <g transform="translate(59.198867,93.665208) translate(-7030.8315,-1723.1178)">
        <path d="m 7371.3709,1778.1405 c -19.4445,0.108 -48.9658,1.5441 -48.9658,1.5441 0,0 -49.3614,3.8564 -67.5976,9.7592 -18.2361,5.9028 -63.8311,24.1421 -70.4658,26.8377 -6.6348,2.6954 -57.0218,23.0655 -64.8698,27.7741 -7.848,4.7086 -8.9097,14.5008 -15.4686,21.4955 -6.559,6.9946 -26.7664,6.2798 -33.2115,6.587 -6.4452,0.3071 -8.8707,4.025 -10.6526,12.5209 -1.7819,8.496 -39.1386,14.0191 -46.8349,15.9639 -7.6964,1.9449 -21.0694,6.3773 -29.1613,6.5588 0,0 -2.3068,4.9431 -2.9046,12.3577 -1.9496,24.181 15.3628,22.596 41.3744,23.0237 37.1285,0.6105 160.4856,6.4539 252.8037,1.2335 92.318,-5.2204 144.3638,-34.3308 156.3822,-46.7164 14.9406,-19.2623 17.0046,-104.501 -4.4102,-114.6202 -5.9902,-1.5013 -30.4084,-3.9013 -48.4171,-4.2764 -2.2511,-0.047 -4.8227,-0.058 -7.6005,-0.044 z m 2.3241,39.5241 c 5.9843,0.035 9.0449,1.1269 9.0449,1.1269 l -34.3678,53.7615 c 0,0 -46.3911,4.8772 -51.6823,5.6528 -5.2912,0.7755 -45.1734,1.4571 -46.9659,1.6122 -1.7925,0.1549 -107.328,7.9247 -107.328,7.9247 l 32.0733,-43.059 c 0,0 21.8908,-9.3005 28.9055,-11.3169 7.0148,-2.0165 65.3432,-9.9757 75.1845,-10.9995 9.8413,-1.0237 84.6019,-4.2892 92.3922,-4.646 0.9738,-0.045 1.8888,-0.061 2.7436,-0.057 z" fill="#f2ebcc" paint-order="markers stroke fill"/>
        <path d="m 6979.0991,1801.1025 c 15.5645,0.1163 240.5003,-0.061 241.2312,1.9125 0.7309,1.9734 -62.989,23.5651 -68.4924,25.6159 -5.5035,2.0509 -21.283,10.9119 -29.5812,14.8201 -8.2982,3.9082 -10.62,5.9203 -13.1997,14.1236 -2.5798,8.2033 -11.1431,13.3911 -27.0015,15.5553 -15.8582,2.1642 -17.9722,-3.4438 -20.853,7.7389 -2.8807,11.1828 -12.5977,17.4127 -31.5589,20.4309 -18.9612,3.0182 -21.4516,0.3646 -32.0088,3.9552 -10.5571,3.5903 -25.5197,5.6411 -25.9927,-20.9809 -0.4729,-26.622 16.9404,-34.2062 14.1457,-50.961 -2.9655,-20.8366 -9.4377,-20.193 -6.6887,-32.2105 z" fill="#73adb4" paint-order="markers stroke fill"/>
        <path d="m 7111.5261,1838.794 c -0.6009,0 -1.1549,0.017 -1.6393,0.052 -3.8757,0.2775 -7.2674,7.2933 -10.1741,9.3941 -2.9068,2.1007 -9.3385,-1.4673 -14.7998,-1.7845 -5.4612,-0.3171 2.0272,9.7115 2.0272,9.7115 0,0 -1.145,6.4201 -4.5803,7.2128 -3.4353,0.7928 -19.5999,-3.5281 -19.5999,-3.5281 0,0 -0.6155,4.321 -3.17,5.6686 -2.5544,1.3476 -11.8474,-0.5941 -11.8474,-0.5941 0,0 -6.297,10.3446 -9.8204,14.7839 -3.5234,4.4392 -34.2219,2.9802 -48.0951,-4.4715 -10.1099,-5.6247 -10.5859,2.9382 -4.6665,9.7479 0.3499,0.6082 1.318,1.6114 3.0589,3.1449 8.4372,7.4321 -16.1497,2.8841 -14.7045,9.3873 1.58,7.1103 6.8816,9.0229 9.5544,9.8636 9.441,2.7755 24.8452,-3.3592 29.8359,-5.4942 0.8091,-0.3461 1.2947,-0.8858 1.5011,-1.5555 1.7804,0.276 3.6145,0.4634 5.5008,0.5442 14.7981,0.6342 27.1312,-2.4593 34.8826,-5.7094 7.7514,-3.2502 5.461,-17.7173 8.8522,-21.126 3.3912,-3.4087 24.6641,-3.4074 34.3974,-5.9044 9.7332,-2.4971 10.4816,-6.779 11.1423,-9.1175 0.6606,-2.3386 12.9925,-19.541 12.9925,-19.541 0,0 -6.4415,-0.6961 -10.648,-0.6848 z m -89.7665,20.2484 c -0.5653,0 -1.1153,0.012 -1.628,0.02 -4.1018,0.071 -13.383,-0.014 -13.5572,1.4399 -1.1244,4.0193 3.6748,3.7328 8.4259,4.8161 4.7512,1.0832 11.6389,-0.4684 13.666,-3.433 1.7738,-2.5941 -2.9497,-2.8644 -6.9067,-2.8434 z" fill="#fff" paint-order="markers stroke fill"/>
        <ellipse cx="6978.7793" cy="2580.7458" rx="144.93475" ry="61.492313" transform="matrix(0.99493586,-0.1005119,0.12726142,0.99186921,0,0)" fill="#c6bd9a" paint-order="markers stroke fill"/>
        <path d="m 7360.1334,1645.0858 c -5.3069,-3.2422 -9.6938,-4.8922 -5.622,-8.6683 4.0719,-3.7761 8.0197,-5.0968 10.9133,-3.6273 2.8937,1.4695 3.6585,11.4585 3.2658,12.9839 -0.3927,1.5252 -8.5571,-0.6883 -8.5571,-0.6883 z" fill="#ec8160" paint-order="markers stroke fill"/>
        <path d="M7247.0967 1693.4114c0 0 52.3222 22.4148 56.5344 24.628 4.2121 2.2133 27.4428 7.6128 27.4428 7.6128 0 0 19.9632-55.6448 20.9312-60.8718.968-5.227 2.8214-22.9368 2.8214-22.9368l-21.2396-4.7523c0 0-32.5459 13.0676-44.9206 20.7433-12.3748 7.6757-41.5696 35.5768-41.5696 35.5768zM7378.8999 1658.0465c0 0 26.5809 19.2128 34.6912 32.6571 8.1103 13.4442 20.0141 41.9809 20.956 50.0098.9418 8.0289-3.0872 15.5397-3.0872 15.5397l-29.1828-8.5603c0 0-4.8282-40.7902-6.6072-50.7498-1.779-9.9596-16.77-38.8965-16.77-38.8965z" fill="#ec8160" paint-order="markers stroke fill"/>
        <path d="m 7331.0739,1725.6522 c 0,0 18.5866,-55.9134 19.7893,-62.6535 1.2027,-6.7401 3.9634,-21.1551 3.9634,-21.1551 0,0 18.6959,7.97 21.7298,11.7337 3.034,3.7636 18.368,38.8417 21.4293,50.2556 3.0613,11.4139 4.2914,43.8599 4.2914,43.8599 z" fill="#fff" paint-order="markers stroke fill"/>
        <path d="m 7142.3943,1888.801 28.4938,-43.7607 c 0,0 25.4709,-8.6 32.4857,-10.6165 7.0147,-2.0164 65.3427,-9.9761 75.1841,-10.9998 9.8413,-1.0238 84.6024,-4.2887 92.3928,-4.6454 7.7903,-0.3568 11.7889,1.0702 11.7889,1.0702 l -34.3671,53.7616 c 0,0 -46.392,4.8765 -51.6832,5.6521 -5.2912,0.7756 -45.1736,1.458 -46.9661,1.6131 -1.7924,0.1549 -107.3289,7.9254 -107.3289,7.9254 z" fill="#719677" paint-order="markers stroke fill"/>
        <path d="m 7211.8007,1670.1808 c 0,0 32.0216,-22.848 52.8165,-29.7368 20.7949,-6.8888 56.4736,-7.0802 66.8923,-6.0852 10.4187,0.9951 -13.6931,7.2716 -22.3258,13.0505 -8.6327,5.779 -32.1491,18.7913 -37.6349,22.848 -5.4858,4.0568 -24.4521,23.1541 -24.4521,23.1541 0,0 -28.9172,-12.5147 -33.0847,-15.6147 -4.1674,-3.0999 -2.2113,-7.6159 -2.2113,-7.6159 z" fill="#fff" paint-order="markers stroke fill"/>
        <path d="M7161.9327 1887.3904c1.9376-5.2501 11.2784-18.2183 14.9149-23.2849 6.4706-9.0156 9.6823-16.4529 17.567-24.5165l4.1724-.6627c-6.0775 13.5332-14.9769 22.3475-22.1175 34.8122-1.0919 1.9608-8.8479 12.6244-8.8479 12.6244zM7320.5711 1874.9151c3.0537-6.4045 9.6015-18.4634 14.7562-23.917 6.9828-10.0045 15.4179-20.2716 20.4956-31.3175l7.8477-1.7284c-7.4428 14.1533-17.6526 28.2631-25.9711 40.7411-2.808 4.1517-9.4899 15.8966-9.4899 15.8966z" fill="#96af91" paint-order="markers stroke fill"/>
        <path d="m 7362.6172,1629.4532 v 0 c -1.4142,0 -4.7477,1.3332 -7.4084,2.9554 -4.7638,2.9051 -5.0683,2.903 -20.1234,-0.1299 -21.5016,-4.3318 -47.5279,-3.374 -64.4596,2.3725 -22.4555,7.6208 -56.3639,26.6248 -59.3376,33.2555 -2.3937,5.3377 -1.543,9.7586 2.4056,12.5037 12.038,8.369 60.1239,31.4468 86.7571,41.6372 7.5949,2.9059 11.4367,5.1755 11.1099,6.5643 -0.2744,1.1671 -5.7243,12.9992 -12.1116,26.2935 l -11.6131,24.1713 -18.8465,4.8098 c -19.2876,4.9266 -36.3646,10.3677 -58.1022,16.3449 l -79.5198,-0.6249 c -73.0718,-0.5742 -113.629,-1.473 -142.5815,0.4858 -21.808,1.4753 -9.6052,5.9565 37.7539,5.1435 28.1088,-0.4832 53.6085,-0.2665 73.679,-0.072 22.71,0.2193 47.4242,-0.3355 65.9496,-0.2686 23.7307,0.086 33.6671,-0.5143 33.6671,0.6562 0,0.9168 -2.6125,2.5177 -5.8052,3.5565 -3.1919,1.039 -13.7427,5.6205 -23.4455,10.1812 -9.7028,4.5609 -18.7688,8.2925 -20.1462,8.2925 -1.3774,0 -5.1276,1.4058 -8.3338,3.1242 -4.3974,2.3567 -6.5538,2.7372 -8.7757,1.5478 -3.7055,-1.983 -24.8799,-2.0656 -30.0048,-0.1172 -2.1109,0.8028 -4.2847,2.8663 -4.8303,4.5853 -0.8795,2.7702 -2.5201,3.176 -14.4348,3.5713 -13.1014,0.4347 -13.4959,0.5585 -15.571,4.8969 -2.0201,4.2244 -2.5152,4.4059 -9.6909,3.5558 -4.159,-0.4927 -7.5618,-0.5448 -7.5618,-0.1157 0,0.4287 2.5106,1.8283 5.5784,3.1102 7.1594,2.9917 14.2619,1.5521 16.0925,-3.2623 1.6463,-4.3304 8.5678,-6.2037 14.537,-3.9341 6.7686,2.5733 10.1203,1.9161 14.5738,-2.8578 3.7357,-4.0044 5.4581,-4.5603 16.5526,-5.3493 l 12.383,-0.8805 -9.2871,3.0411 c -11.1027,3.6356 -16.2277,9.0347 -16.2457,17.0929 -0.013,10.414 -10.6108,15.6633 -30.5128,15.1148 -14.9526,-0.4122 -16.4737,0.513 -18.2634,11.107 -0.5538,3.2779 -1.8986,6.7005 -2.989,7.6051 -4.2262,3.5076 -20.3298,7.8217 -29.3629,7.8677 -10.1238,0.051 -25.6855,5.2639 -26.9137,9.0159 -0.535,1.6338 0.4665,1.8368 4.5273,0.9152 2.8678,-0.6506 11.475,-1.0657 19.1275,-0.9223 10.3714,0.1942 16.6032,-0.5715 24.4787,-3.0091 14.5458,-4.5016 18.1036,-7.8886 19.3937,-18.4589 1.509,-12.3643 0.8853,-8.163 14.0999,-9.5674 21.6332,-1.792 35.6058,-8.614 35.7434,-17.4506 0.073,-4.7029 6.558,-11.1588 12.4994,-12.4441 7.0816,-1.5319 18.5206,-7.4263 22.0996,-11.3869 1.6039,-1.7745 3.4923,-2.8707 4.1966,-2.4355 0.7043,0.4353 10.1269,-2.7196 20.9394,-7.0109 11.6022,-4.0222 22.7123,-8.5889 34.0738,-13.204 l 13.053,-4.9067 c 11.7292,-4.4503 14.4401,-6.2601 35.8846,-12.6249 14.9717,-4.3733 24.3766,-6.3524 24.3986,-5.1348 0.011,0.548 -1.905,5.3044 -4.2567,10.5696 -4.1071,9.1951 -4.5778,11.09 -10.4671,10.1129 -10.6048,-1.76 -11.407,4.2593 -7.0615,4.4757 4.9432,0.2461 10.4846,0.1932 14.6688,2.3003 5.0355,2.5363 8.1274,3.3123 9.1448,2.295 1.017,-1.0176 0.9231,-2.2767 -0.2781,-3.724 -1.4333,-1.727 -0.5017,-4.9647 4.4302,-15.3914 3.4351,-7.2622 7.334,-13.6218 8.6635,-14.1319 1.3298,-0.5106 5.4004,-1.996 8.6217,-2.2513 16.9524,-1.3452 31.8992,-2.7268 46.0695,-2.8094 13.9054,-0.081 32.7943,0.4398 60.5462,4.0397 6.4738,0.8398 15.0794,3.4295 16.2724,1.4991 2.1421,-3.4658 -7.5229,-5.081 -20.3226,-6.5526 -30.1702,-4.8493 -66.4467,-5.7497 -100.4256,-2.4763 -7.1546,0.7453 -8.6714,2.9649 1.3441,-20.7991 3.8973,-9.2472 5.8402,-12.8239 7.0178,-16.3815 0.2204,-0.6651 1.5251,-4.1579 2.5689,-6.2163 1.9849,-3.914 5.1543,-2.639 10.9868,-0.5628 29.863,10.6296 91.2352,28.3644 103.0444,28.3644 6.4431,0 7.6985,-4.1773 5.9481,-19.7845 -1.587,-14.1478 -6.8218,-30.7909 -13.3689,-42.5053 -8.1595,-14.5989 -33.1838,-40.3556 -47.3202,-48.7061 -3.2226,-1.9039 -4.518,-3.8714 -4.518,-6.8612 0,-4.8704 -6.831,-13.7202 -10.5852,-13.7102 z m -3.0181,7.8981 v 0 c 1.838,0 4.3188,1.3909 4.3188,2.8868 0,1.9659 -1.6026,2.0037 -4.5988,0.1085 -1.2538,-0.7919 -1.8049,-1.9121 -1.2279,-2.4894 0.3543,-0.3538 0.8954,-0.5072 1.5079,-0.5065 z m -49.4853,0.03 c 2.4905,-0.016 4.6151,0.1135 6.2111,0.4128 l 5.7623,1.0811 -18.542,9.2816 c -20.4488,10.2362 -40.3674,24.366 -49.136,34.8559 -3.1313,3.7457 -6.4164,6.7522 -7.3004,6.6813 -0.8837,-0.072 -9.2646,-3.787 -18.6243,-8.2566 -9.5879,-4.5786 -24.0429,-5.8 -10.4034,-12.3016 11.7531,-7.4191 39.8616,-20.8875 52.3214,-25.0703 11.2577,-3.779 28.9189,-6.6114 39.7113,-6.6842 z m 26.9587,3.7471 c 1.9671,0.086 4.0653,0.635 6.5013,1.8505 8.1574,2.6085 8.7371,0.7908 7.0802,9.6181 -0.5376,3.8727 -5.5126,20.973 -11.0553,38.0003 -5.5428,17.0269 -10.5233,31.3639 -11.0675,31.86 -2.4228,2.2085 -74.5287,-26.7546 -75.4645,-30.3125 -0.2241,-0.8514 3.9939,-5.2607 9.3734,-9.7988 18.0848,-15.2564 40.799,-29.0516 61.3495,-37.2597 5.2607,-2.1013 8.9548,-4.1479 13.2829,-3.9579 z m 18.3832,6.9008 c 2.359,0 16.51,8.1929 19.3699,11.2144 3.6264,3.8309 13.0381,21.6731 16.2801,30.8615 1.1297,3.2015 3.1866,13.6771 4.5709,23.2794 1.384,9.602 2.2924,20.6264 2.019,24.498 l -0.4971,7.0395 -20.8971,-5.765 c -27.0586,-7.4649 -41.203,-12.9116 -40.4069,-15.5609 0.3376,-1.1224 2.953,-9.7026 5.8116,-19.0675 8.2352,-26.9774 12.9244,-45.5729 12.9244,-51.2511 0,-2.8866 0.3714,-5.2483 0.8252,-5.2483 z m 32.2022,20.6333 c 0.3561,-0.3559 6.3521,5.4787 13.3247,12.9656 18.0146,19.3435 29.3594,44.3953 29.469,65.0809 0.021,3.8188 -0.6258,4.9993 -2.6818,4.8993 -4.0423,-0.1963 -18.9122,-3.9465 -20.0129,-5.0472 -0.5265,-0.5262 -1.2295,-4.278 -1.5621,-8.3375 -2.1034,-25.6802 -8.4206,-50.6685 -16.1009,-63.6876 -1.6955,-2.8742 -2.7919,-5.5176 -2.436,-5.8735 z m 28.8893,140.3506 c -0.8514,0 -1.5478,0.6969 -1.5478,1.5483 0,0.8512 0.6964,1.5476 1.5478,1.5476 0.8512,0 1.5481,-0.6964 1.5481,-1.5476 0,-0.8514 -0.6969,-1.5483 -1.5481,-1.5483 z m -42.0719,6.5056 c -1.7471,0 -3.6891,0.076 -5.914,0.2175 -6.3852,0.4056 -15.8697,1.1001 -17.4712,1.1779 -27.9419,1.3557 -57.7321,3.3348 -83.5827,6.327 -18.7978,2.1756 -40.9937,5.67 -58.588,9.8793 -12.1658,2.9104 -27.4516,6.6439 -38.5972,8.9283 -9.3567,1.9135 -10.9138,4.2344 -6.9379,4.4876 4.8739,0.3106 2.4697,5.7849 -1.1591,5.7849 -2.6453,0 -8.8249,0.7284 -8.8249,1.5798 0,0.8514 2.1309,1.547 4.7352,1.547 6.7398,0 4.0945,3.0443 -2.8919,3.3279 -4.6728,0.1897 -6.3169,2.2995 -2.8307,2.7964 2.9511,0.4204 5.439,0.085 5.04,1.9026 -0.094,0.4258 -0.4784,1.0864 -0.7194,1.6362 -3.3541,-0.5082 -5.584,-0.5924 -8.2269,-0.8583 -2.8306,-0.2847 -3.678,2.9152 -0.6985,2.7392 2.0571,-0.1214 5.7195,0.2091 7.7906,0.425 -0.5157,0.8612 -1.1089,1.7343 -1.7267,2.6016 -3.9936,-0.2603 -5.7898,-0.3744 -8.5682,-0.1947 -2.9795,0.1929 -5.819,0.9469 -4.0407,2.2122 1.4107,1.0038 7.6813,1.017 10.2195,0.9795 -1.3211,1.493 -2.5538,2.6826 -3.2023,2.6942 -5.0964,0.091 -4.1849,0.2117 -5.6261,0.2275 -5.2085,0.058 -8.7791,1.6111 -2.4175,2.7192 7.2353,1.2599 6.5061,2.5434 -2.7196,2.3754 -3.5137,-0.064 -3.2988,1.1951 0.7916,1.828 6.1077,0.9446 5.247,3.161 -1.9817,5.1075 -3.4311,0.9239 -5.9023,2.2236 -5.4917,2.8877 1.4229,2.3024 16.0705,1.5203 82.9344,-4.4326 19.1556,-1.7052 37.9085,-3.2782 41.6735,-3.4935 0.8686,-0.05 1.6949,-0.1913 2.4903,-0.2773 14.3388,-1.5513 30.9779,-0.3032 42.7106,-1.5164 5.4295,-0.5614 18.8611,-1.6554 29.8498,-2.4204 16.3975,-1.1414 20.5089,-1.9203 22.9335,-4.3449 2.5506,-2.5509 3.7854,-2.7327 9.0361,-1.3312 4.3817,1.1692 6.5656,1.1372 7.8126,-0.1098 2.7421,-2.7421 0.1204,-5.094 -5.6756,-5.094 -5.9539,0 -5.9613,-0.011 -3.7042,-4.963 1.4134,-3.1018 2.535,-3.4886 8.6995,-2.9983 5.4465,0.4331 6.9178,0.078 6.3852,-1.5425 -0.3807,-1.1581 -2.9025,-2.3239 -5.6036,-2.5906 -7.0734,-0.6987 -6.0576,-3.3848 1.2798,-3.3848 3.4054,0 6.192,-0.6985 6.192,-1.5499 0,-0.8514 -2.0902,-1.5465 -4.6442,-1.5465 -5.2676,0 -5.2755,-0.013 -2.8818,-5.2694 1.4512,-3.1846 3.0205,-3.9495 8.9006,-4.3307 3.9264,-0.2546 6.9299,-1.1573 6.6746,-2.0085 -0.2553,-0.8517 -2.8975,-1.3933 -5.8722,-1.2015 -3.198,0.2062 -5.0268,-0.2667 -4.4751,-1.1591 0.513,-0.8303 3.6369,-1.5094 6.9418,-1.5094 3.305,0 6.4392,-0.6988 6.9655,-1.55 0.5707,-0.9239 -1.3169,-1.547 -4.6816,-1.547 -3.761,0 -5.4253,-0.6316 -5.0059,-1.896 0.4056,-1.2166 3.0874,-1.7261 7.4819,-1.4237 7.253,0.4992 7.1697,-1.9315 -0.1164,-3.3809 -2.703,-0.5371 -2.2365,-0.7135 1.5478,-0.5879 7.6319,0.253 7.0048,-2.277 -1.3843,-5.5853 -4.0989,-1.6161 -7.5838,-2.2926 -12.8246,-2.2913 z m 1.374,4.5982 c 2.1473,0.041 3.5475,0.169 3.5475,0.4326 0,0.3849 -3.0226,5.0845 -6.7173,10.4462 -3.6946,5.3618 -10.3023,15.7507 -14.6838,23.086 -4.3818,7.3353 -9.0443,14.2314 -10.3611,15.3247 -1.3173,1.093 -7.4223,2.2021 -13.5662,2.4643 -6.2976,0.2691 -14.0483,1.6745 -21.4236,2.5411 -8.9554,1.0519 -47.1038,3.657 -61.6979,4.2735 -8.4476,0.3567 -20.4084,0.7218 -33.055,2.2341 -10.3549,1.238 -29.1949,2.9901 -41.8666,3.8929 -12.6716,0.9025 -24.6874,2.0531 -26.7017,2.5585 -4.4672,1.1213 -4.5797,0.03 -0.5763,-5.5925 0.6996,-0.9821 1.2123,-1.7513 1.5727,-2.3807 4.545,-6.8202 10.7484,-11.7888 13.6348,-17.7581 2.2124,-4.5754 3.2422,-6.5286 5.6713,-10.2129 5.1065,-7.7459 6.9956,-4.7477 46.2455,-15.7356 17.6117,-4.0415 27.2952,-5.0445 45.9772,-7.5739 27.0346,-3.6605 73.0215,-6.2108 92.1342,-7.33 2.2582,-0.1321 15.4244,-0.7927 21.8663,-0.6702 z m 41.5737,12.115 c -4.8258,0 -5.5195,0.477 -5.5195,3.793 0,2.086 1.2189,4.503 2.7088,5.3708 3.7203,2.167 8.3733,1.973 11.6091,-0.4831 5.6042,-4.2542 1.1176,-8.6807 -8.7984,-8.6807 z m -1.11,3.2795 c 3.5894,0.075 9.5219,1.6401 9.5219,2.9784 0,1.8891 -7.7986,1.8815 -10.7905,-0.011 -1.2512,-0.7919 -1.8077,-1.9087 -1.2335,-2.4828 0.3693,-0.3694 1.3057,-0.5099 2.5021,-0.4847 z m -10.51,6.0084 c -1.9518,0 -3.3496,2.4172 -2.113,3.6539 1.7431,1.7434 3.5698,1.0615 3.5698,-1.3322 0,-1.2768 -0.6556,-2.3217 -1.4568,-2.3217 z m -27.5868,1.6211 c -1.5547,0 -3.4896,0.4916 -5.0107,1.4748 -1.7618,1.1385 -1.1086,1.5068 2.7088,1.524 2.7671,0.013 5.0308,-0.6728 5.0308,-1.524 0,-0.9832 -1.1745,-1.4748 -2.7289,-1.4748 z m -294.2891,8.1725 c -2.4731,-0.01 -3.528,2.3264 -1.9021,5.3641 2.464,4.6043 -1.7069,5.5386 -11.7256,2.626 -9.1437,-2.658 -11.3218,-2.1645 -11.3218,2.5665 0,2.8226 -0.6469,3.031 -6.3902,2.0608 -6.1346,-1.0366 -6.623,-0.8096 -12.2007,5.6669 -7.3189,8.4976 -6.6061,7.1384 -18.7632,7.2435 -7.81,0.2997 -16.7923,-0.4125 -22.6219,-1.7944 -9.3503,-2.2159 -13.2376,-1.4875 -9.2765,1.738 2.9403,2.394 13.594,6.6085 20.4933,8.1068 7.8705,1.7095 21.4564,0.5602 26.9478,-2.2793 5.3515,-2.7673 7.7777,-5.6891 9.2969,-11.1962 1.2158,-4.4063 2.7874,-4.9265 8.9525,-2.9612 2.4085,0.7678 4.3426,0.1466 6.614,-2.1248 2.3164,-2.3165 3.955,-2.8263 5.8841,-1.831 8.7521,4.517 20.9709,2.8948 22.8523,-3.0334 1.0962,-3.4539 -1.3983,-8.4037 -4.9154,-9.7533 -0.7065,-0.2712 -1.3528,-0.3974 -1.9235,-0.399 z m -43.7018,2.0402 c -2.5252,0.1651 -3.0549,1.488 -1.9838,4.2793 1.1009,2.8694 2.7641,3.0764 6.9066,0.8594 4.322,-2.313 3.687,-4.1362 -1.7176,-4.9294 -1.2999,-0.1908 -2.3633,-0.2644 -3.2052,-0.2093 z m 376.868,0.1772 v 0 c -6.6257,0.2054 -11.3879,3.7553 -11.3879,8.0746 0,3.4314 6.2357,9.148 11.794,10.8122 10.3201,3.0901 17.6165,0.6863 17.6165,-5.8039 0,-4.8718 -2.4828,-8.7074 -6.55,-10.1198 -2.4424,-0.848 -2.4141,-0.4334 0.3241,4.6757 3.5589,6.64 2.9581,8.2053 -3.1533,8.2053 -3.2525,0 -4.5527,-0.7514 -4.5527,-2.6316 0,-2.0468 -0.4127,-2.2185 -1.8574,-0.7739 -2.6857,2.6856 -5.0707,2.2884 -2.7863,-0.464 1.5783,-1.9016 1.4724,-2.322 -0.5844,-2.322 -1.3814,0 -2.5115,0.8125 -2.5115,1.8058 0,0.9932 -0.4603,1.3459 -1.0226,0.7834 -0.5622,-0.5623 0.2426,-2.4199 1.7883,-4.128 3.0912,-3.4156 2.1971,-3.9712 -2.4156,-1.5024 -1.8849,1.0084 -2.9938,1.042 -2.9938,0.09 0,-2.2484 3.079,-3.9986 10.0883,-4.3151 5.8291,-0.2632 6.8308,-2.1153 -0.4469,-2.3825 -0.4574,-0.016 -0.908,-0.019 -1.3499,-0.01 z m -388.905,3.6354 c -0.9667,0.042 -1.7171,0.6787 -1.7171,2.0791 0,3.6304 -7.5155,6.0375 -13.1575,4.214 -4.2381,-1.3695 -3.9002,-1.5166 3.8701,-1.6825 10.6317,-0.227 7.5504,-3.1715 -3.3562,-3.2064 -12.5418,-0.041 -16.2013,3.8565 -7.8664,8.3783 2.3413,1.27 7.7589,2.3365 12.0391,2.3714 9.2083,0.073 15.0693,-3.2721 14.364,-8.1984 -0.3501,-2.4452 -2.5644,-4.0256 -4.176,-3.9555 z m 339.5994,6.0246 c -6.4048,0 -7.3002,2.6487 -1.161,3.4348 4.8588,0.6223 6.5788,0.105 6.5788,-1.9786 0,-0.8011 -2.4378,-1.4562 -5.4178,-1.4562 z m 27.1798,15.4786 c -1.9521,0 -3.3499,2.4173 -2.1129,3.6539 1.743,1.7434 3.5697,1.0615 3.5697,-1.3321 0,-1.2769 -0.6556,-2.3218 -1.4568,-2.3218 z m -312.2901,6.4119 c -5.1011,0.059 -8.2206,2.907 -8.2206,7.7267 0,6.5413 -7.3017,12.9968 -18.3073,16.1851 -4.8297,1.3991 -10.174,3.112 -11.8769,3.8065 -7.1442,2.9136 8.7419,1.3409 16.582,-1.6417 12.1338,-4.6159 15.5173,-7.7949 16.5695,-15.567 0.8131,-6.0056 1.4407,-6.8236 6.3201,-8.2347 5.2607,-1.5213 5.2967,-1.583 1.2375,-2.1264 -0.8062,-0.108 -1.5753,-0.1567 -2.3043,-0.1485 z m 279.6011,7.5195 c -0.8011,0 -1.4563,0.6964 -1.4563,1.5478 0,0.8512 1.0856,1.5481 2.4128,1.5481 1.3282,0 1.983,-0.6969 1.4568,-1.5481 -0.526,-0.8514 -1.6121,-1.5478 -2.4133,-1.5478 z m -15.6252,0.3979 c -0.9528,0.136 -2.0251,0.9726 -2.5032,2.4077 -0.3371,1.011 0.49,1.8381 1.838,1.8381 1.3481,0 2.4506,-1.1025 2.4506,-2.4506 0,-1.3668 -0.8329,-1.9312 -1.7854,-1.7952 z m 29.192,3.2695 c -0.4453,-0.045 -0.9255,0.1908 -1.4415,0.7064 -0.8517,0.8515 -1.0424,2.3659 -0.4246,3.3658 0.7488,1.2118 1.6391,1.3017 2.6712,0.2699 0.8517,-0.8515 1.0427,-2.3662 0.4247,-3.3658 -0.3742,-0.6056 -0.7845,-0.9311 -1.2293,-0.9763 z m -75.301,0.9763 c -0.9014,0 -1.6391,0.6964 -1.6391,1.5476 0,0.8514 0.3072,1.5483 0.6827,1.5483 0.3754,0 1.1128,-0.6969 1.6391,-1.5483 0.5262,-0.8512 0.219,-1.5476 -0.6827,-1.5476 z m 54.0862,4.6437 c -0.8515,0 -1.5484,0.6961 -1.5484,1.5476 0,0.8514 0.6969,1.5483 1.5484,1.5483 0.8514,0 1.5478,-0.6969 1.5478,-1.5483 0,-0.8515 -0.6964,-1.5476 -1.5478,-1.5476 z m -25.5405,2.8633 c -0.8089,0 -1.7203,0.7493 -2.0254,1.6645 -0.3051,0.9152 0.6064,1.664 2.0254,1.664 1.4189,0 2.3299,-0.7488 2.0251,-1.664 -0.3051,-0.9152 -1.2163,-1.6645 -2.0251,-1.6645 z m -180.2419,3.3285 c -1.9521,0 -3.3499,2.4167 -2.1129,3.6536 1.743,1.7431 3.5697,1.0618 3.5697,-1.3319 0,-1.2769 -0.6556,-2.3217 -1.4568,-2.3217 z m -19.2669,0.5318 c -0.5551,-0.093 -0.9472,0.2482 -0.9472,0.9245 0,0.9017 0.6969,1.639 1.548,1.639 0.8515,0 1.5479,-0.3063 1.5479,-0.682 0,-0.3755 -0.6964,-1.1134 -1.5479,-1.6397 -0.2127,-0.1315 -0.4159,-0.2108 -0.6008,-0.2418 z m -10.3137,2.8459 c -0.8356,-0.049 -1.4685,0.7313 -1.4685,1.9108 0,1.348 1.1025,2.4511 2.4503,2.4511 2.7337,0 2.258,-3.3324 -0.6122,-4.2892 -0.1265,-0.042 -0.2501,-0.066 -0.3696,-0.073 z m 72.6133,3.0519 c -0.7565,-0.011 -1.3298,0.8419 -1.3298,2.0836 0,1.419 0.749,2.3302 1.6639,2.0251 0.9155,-0.305 1.6643,-1.2162 1.6643,-2.0251 0,-0.8088 -0.7488,-1.7203 -1.6643,-2.0254 -0.1143,-0.038 -0.2262,-0.057 -0.3341,-0.058 z m -17.1763,0.3792 c -1.6033,0 -3.3271,0.417 -4.7392,1.3314 -1.8738,1.2128 -5.4967,2.7109 -8.0507,3.3289 -7.2284,1.7489 -11.6097,5.2486 -11.6097,9.2737 0,4.336 2.5834,6.7207 10.4341,9.6332 7.2774,2.6998 18.1409,1.8182 22.1351,-1.7963 3.9124,-3.5419 3.8825,-10.3036 -0.064,-13.8747 -1.7026,-1.5409 -3.0962,-3.6917 -3.0962,-4.7794 0,-1.9545 -2.3368,-3.1155 -5.0088,-3.1168 z m -41.3355,4.0267 c -1.9519,0 -3.3499,2.4169 -2.113,3.6536 1.7431,1.7433 3.5697,1.062 3.5697,-1.3316 0,-1.2772 -0.6556,-2.322 -1.4567,-2.322 z m -45.6142,0.5627 c -1.2404,0 -2.4151,1.3566 -1.6222,2.6398 0.4898,0.7924 1.5457,1.4412 2.3466,1.4412 1.6642,0 1.9391,-2.0982 0.4673,-3.5698 -0.3575,-0.3574 -0.7784,-0.5101 -1.1917,-0.5112 z m 76.9183,5.6288 c 0.5318,0 -0.2196,2.0854 -1.6698,4.6342 -2.7921,4.9069 -4.9588,6.0301 -4.9588,2.5714 0,-2.0505 4.7424,-7.2056 6.6286,-7.2056 z m 5.673,0.1177 c 0.713,0.094 0.6995,1.7397 -0.6133,4.8617 -1.1515,2.7387 -2.8594,5.2348 -3.7952,5.547 -2.2881,0.7626 -2.1442,-0.5365 0.6604,-5.96 1.5954,-3.0848 3.035,-4.5426 3.7481,-4.4487 z m -11.8674,0.024 c 0.1828,0.039 0.3458,0.1225 0.48,0.2567 0.3897,0.3897 -0.353,1.5917 -1.6505,2.6665 -1.4714,1.221 -2.3596,1.3385 -2.3596,0.3122 0,-1.637 2.2487,-3.5116 3.5301,-3.2354 z m 18.8267,0.2749 c 0.3553,0.032 0.8906,0.4967 1.6928,1.2991 1.3475,1.3457 1.946,3.5063 1.3824,4.9755 -1.6425,4.2797 -3.761,2.9396 -3.761,-2.3788 0,-2.7972 0.093,-3.9484 0.6858,-3.8958 z m -3.746,4.227 c 0.6726,0 0.8583,1.3933 0.4128,3.0959 -0.4451,1.7029 -1.3595,3.0962 -2.0318,3.0962 -0.6728,0 -0.8583,-1.3933 -0.413,-3.0962 0.4453,-1.7026 1.3595,-3.0959 2.032,-3.0959 z m 83.6433,0 c -0.8993,0 -1.6391,0.6969 -1.6391,1.5484 0,0.8511 0.3072,1.5475 0.6826,1.5475 0.3755,0 1.1131,-0.6964 1.6394,-1.5475 0.526,-0.8515 0.2188,-1.5484 -0.6829,-1.5484 z"/>
    </g>
</svg>
